<svg width="216" height="233" viewBox="0 0 216 233" fill="none" xmlns="http://www.w3.org/2000/svg">
<path fill-rule="evenodd" clip-rule="evenodd" d="M86.5 56.5C78.3159 56.1743 70.3159 56.5076 62.5 57.5C61.325 57.719 60.325 57.3857 59.5 56.5C68.6582 55.1782 77.6582 55.1782 86.5 56.5Z" fill="#817C4D"/>
<path fill-rule="evenodd" clip-rule="evenodd" d="M127.5 56.5C119.981 56.175 112.648 56.5084 105.5 57.5C104.325 57.719 103.325 57.3857 102.5 56.5C110.991 55.1791 119.324 55.1791 127.5 56.5Z" fill="#6E6941"/>
<path fill-rule="evenodd" clip-rule="evenodd" d="M62.5 57.5C70.3159 56.5076 78.3159 56.1743 86.5 56.5C99.1906 59.2012 103.691 66.8679 100 79.5C98.7261 82.9359 96.5594 85.6026 93.5 87.5C92.1283 86.4884 90.795 85.4884 89.5 84.5C95.6607 77.6641 96.1607 70.3308 91 62.5C89.5123 60.84 87.679 59.84 85.5 59.5C81.03 58.5139 76.3633 58.1805 71.5 58.5C71.5 69.1667 71.5 79.8333 71.5 90.5C70.2921 89.7659 68.9587 89.4326 67.5 89.5C67.7373 90.791 67.404 91.791 66.5 92.5C66.6665 81.8281 66.4998 71.1615 66 60.5C64.9609 59.2899 63.7942 58.2899 62.5 57.5Z" fill="#F0DD88"/>
<path fill-rule="evenodd" clip-rule="evenodd" d="M105.5 57.5C112.648 56.5084 119.981 56.175 127.5 56.5C135.97 55.819 142.803 58.819 148 65.5C150.66 75.3484 147.16 81.8484 137.5 85C139.586 85.3153 141.586 85.8153 143.5 86.5C141.393 87.4682 139.059 87.8016 136.5 87.5C134.194 87.0074 131.861 86.6741 129.5 86.5C129.5 85.5 129.5 84.5 129.5 83.5C139.216 81.0719 142.382 75.0719 139 65.5C136.308 62.0713 132.808 60.0713 128.5 59.5C123.852 58.5464 119.019 57.8797 114 57.5C112.293 57.5085 110.793 57.8418 109.5 58.5C108.167 58.1667 106.833 57.8333 105.5 57.5Z" fill="#EBD986"/>
<path fill-rule="evenodd" clip-rule="evenodd" d="M85.5 59.5C81.1667 59.5 76.8333 59.5 72.5 59.5C72.5 77.8333 72.5 96.1667 72.5 114.5C71.5076 106.684 71.1743 98.6841 71.5 90.5C71.5 79.8333 71.5 69.1667 71.5 58.5C76.3633 58.1805 81.03 58.5139 85.5 59.5Z" fill="#9D8E53"/>
<path fill-rule="evenodd" clip-rule="evenodd" d="M124.5 92.5C126.7 96.2395 128.367 100.239 129.5 104.5C129.321 107.191 128.321 109.525 126.5 111.5C125.614 110.675 125.281 109.675 125.5 108.5C126.264 100.662 123.597 93.9956 117.5 88.5C114.833 84.4989 112.666 80.1655 111 75.5C110.245 72.6967 110.578 70.0301 112 67.5C112.994 77.4888 117.161 85.8221 124.5 92.5Z" fill="#100D07"/>
<path fill-rule="evenodd" clip-rule="evenodd" d="M128.5 59.5C125.15 59.335 121.817 59.5017 118.5 60C115.649 66.3771 116.149 72.5437 120 78.5C123.414 83.0656 126.58 87.7323 129.5 92.5C127.833 92.5 126.167 92.5 124.5 92.5C117.161 85.8221 112.994 77.4888 112 67.5C110.578 70.0301 110.245 72.6967 111 75.5C112.666 80.1655 114.833 84.4989 117.5 88.5C113.833 89.8333 110.167 89.8333 106.5 88.5C107.793 84.6916 107.793 80.8583 106.5 77C108.093 72.9104 109.427 68.7437 110.5 64.5C110.328 62.4523 109.995 60.4523 109.5 58.5C110.793 57.8418 112.293 57.5085 114 57.5C119.019 57.8797 123.852 58.5464 128.5 59.5Z" fill="#DAC574"/>
<path fill-rule="evenodd" clip-rule="evenodd" d="M89.5 84.5C90.795 85.4884 92.1283 86.4884 93.5 87.5C91.7274 88.8923 89.7274 90.059 87.5 91C89.7899 92.7772 91.4566 94.9438 92.5 97.5C90.2188 97.0773 88.5521 97.744 87.5 99.5C84.6979 96.5242 82.0312 93.3575 79.5 90C77.913 89.1376 76.2464 88.4709 74.5 88C79.7448 87.6527 84.7448 86.4861 89.5 84.5Z" fill="#C3A859"/>
<path fill-rule="evenodd" clip-rule="evenodd" d="M106.5 88.5C110.167 89.8333 113.833 89.8333 117.5 88.5C123.597 93.9956 126.264 100.662 125.5 108.5C123.972 107.198 122.972 105.531 122.5 103.5C121.726 102.853 120.726 102.52 119.5 102.5C116.199 103.554 112.865 104.054 109.5 104C108.632 100.233 107.965 96.3994 107.5 92.5C106.5 92.5 105.5 92.5 104.5 92.5C104.229 90.6203 104.896 89.287 106.5 88.5Z" fill="#BB9C4C"/>
<path fill-rule="evenodd" clip-rule="evenodd" d="M143.5 86.5C151.878 89.5506 155.878 95.5506 155.5 104.5C154.778 104.082 154.278 103.416 154 102.5C152.887 103.711 151.72 103.711 150.5 102.5C149.482 103.193 148.482 103.859 147.5 104.5C148.065 95.9383 144.399 90.2716 136.5 87.5C139.059 87.8016 141.393 87.4682 143.5 86.5Z" fill="#BFA14F"/>
<path fill-rule="evenodd" clip-rule="evenodd" d="M124.5 92.5C126.167 92.5 127.833 92.5 129.5 92.5C133.253 96.0154 134.753 100.349 134 105.5C131.182 110.161 127.349 113.495 122.5 115.5C116.491 118.337 110.157 119.171 103.5 118C96.4187 113.332 91.0854 107.166 87.5 99.5C88.5521 97.744 90.2188 97.0773 92.5 97.5C95.7971 100.736 98.6304 104.403 101 108.5C103.727 111.731 106.894 114.397 110.5 116.5C110.481 113.434 110.648 110.101 111 106.5C113.454 105.802 115.787 104.802 118 103.5C118.379 107.769 118.545 111.769 118.5 115.5C121.925 112.238 123.258 108.238 122.5 103.5C122.972 105.531 123.972 107.198 125.5 108.5C125.281 109.675 125.614 110.675 126.5 111.5C128.321 109.525 129.321 107.191 129.5 104.5C128.367 100.239 126.7 96.2395 124.5 92.5Z" fill="#AC8C3F"/>
<path fill-rule="evenodd" clip-rule="evenodd" d="M155.5 104.5C152.367 113.924 145.701 118.758 135.5 119C129.5 119.667 123.5 119.667 117.5 119C119.584 118.303 121.251 117.136 122.5 115.5C126.514 115.666 130.514 115.499 134.5 115C141.124 114.199 145.457 110.699 147.5 104.5C148.482 103.859 149.482 103.193 150.5 102.5C151.72 103.711 152.887 103.711 154 102.5C154.278 103.416 154.778 104.082 155.5 104.5Z" fill="#A7863A"/>
<path fill-rule="evenodd" clip-rule="evenodd" d="M71.5 90.5C71.1743 98.6841 71.5076 106.684 72.5 114.5C74.1652 116.797 76.4985 118.13 79.5 118.5C72.8333 119.833 66.1667 119.833 59.5 118.5C62.6879 118.144 64.8545 116.477 66 113.5C66.4996 106.508 66.6663 99.5079 66.5 92.5C67.404 91.791 67.7373 90.791 67.5 89.5C68.9587 89.4326 70.2921 89.7659 71.5 90.5Z" fill="#AD8D3F"/>
</svg>
