<svg version="1.0" xmlns="http://www.w3.org/2000/svg"
 width="938.000000pt" height="1000.000000pt" viewBox="0 0 938.000000 1000.000000"
 preserveAspectRatio="xMidYMid meet">

<g transform="translate(0.000000,1000.000000) scale(0.100000,-0.100000)"
fill="#000000" stroke="none">
<path fill="white" d="M856 8871 c-270 -575 -318 -1294 -130 -1963 35 -125 36 -128 17 -151
-10 -13 -57 -75 -104 -138 -345 -458 -544 -981 -621 -1634 -20 -168 -16 -824
5 -1035 68 -653 211 -1117 464 -1502 184 -281 438 -526 728 -704 401 -245
1073 -486 1617 -579 576 -98 1585 -152 2343 -126 588 20 794 36 1175 91 894
128 1462 333 1954 704 241 182 416 361 568 581 342 494 514 1259 495 2210 -8
442 -54 740 -169 1095 -113 351 -297 700 -512 970 -38 47 -70 90 -73 96 -2 6
9 56 26 112 116 392 148 871 85 1276 -36 231 -119 510 -209 702 l-45 96 -117
-7 c-403 -23 -686 -92 -999 -244 -261 -127 -527 -295 -850 -538 l-151 -113
-139 29 c-506 108 -894 146 -1464 145 -585 -1 -952 -37 -1530 -151 l-185 -36
-169 127 c-193 146 -491 346 -651 437 -387 221 -718 316 -1200 345 l-111 6
-48 -101z m2100 -3706 c181 -17 449 -50 804 -100 323 -44 431 -55 700 -65 389
-14 743 7 1195 70 815 114 1079 130 1322 81 253 -52 454 -156 632 -326 363
-348 536 -846 493 -1427 -21 -283 -76 -499 -182 -713 -286 -579 -775 -877
-1690 -1029 -429 -71 -615 -81 -1560 -81 -821 0 -937 4 -1285 41 -457 48 -918
177 -1235 346 -358 190 -613 482 -766 878 -123 320 -156 770 -83 1135 76 378
287 729 567 941 106 79 295 174 418 209 189 54 394 66 670 40z"/>
<path fill="white" d="M2730 4617 c-36 -12 -87 -35 -115 -51 -161 -95 -331 -343 -400 -581
-119 -419 -35 -946 200 -1243 143 -180 290 -262 471 -262 236 0 429 147 577
440 85 170 126 345 134 577 14 427 -95 754 -328 980 -151 146 -361 201 -539
140z"/>
<path fill="white" d="M6338 4621 c-119 -38 -220 -120 -330 -265 -154 -204 -225 -425 -235
-727 -7 -226 11 -359 79 -569 81 -252 269 -478 459 -552 68 -26 212 -35 292
-18 263 54 492 356 579 763 32 151 32 436 0 596 -59 292 -148 469 -315 628
-121 115 -237 163 -386 162 -54 0 -107 -7 -143 -18z"/>
</g>
</svg>